# xmcd
# 
# Track frame offsets:
#	150
#	17634
#	32628
#	48925
#	64399
#	82040
#	99183
#	118697
#	135217
#	145235
#
# Disc length: 2165 seconds
#
# Revision: 1
# Processed by: cddbd v1.4PL0 Copyright (c) Steve Scherf et al.
# Submitted via: Audio-CD-Archiv 2.10.446
#
DISCID=7d08730a
DTITLE=Ol' Yeller - Country
DYEAR=1900
DGENRE=country
TTITLE0=57 Skidoo
TTITLE1=She Darked The Sun
TTITLE2=Open Heart
TTITLE3=Illegal Smile
TTITLE4=Some Of Shelly's Blues
TTITLE5=In God's Country
TTITLE6=Train Leaves Here This Morning
TTITLE7=I'm Gonna Love You
TTITLE8=Nashville Burn
TTITLE9=The Red Headed Stranger?
EXTD=
EXTT0=
EXTT1=
EXTT2=
EXTT3=
EXTT4=
EXTT5=
EXTT6=
EXTT7=
EXTT8=
EXTT9=
PLAYORDER=
